<svg xmlns="http://www.w3.org/2000/svg" xmlns:xlink="http://www.w3.org/1999/xlink" width="270" zoomAndPan="magnify" viewBox="50 155 270 68" height="68" preserveAspectRatio="xMidYMid meet" version="1.0"><defs><g/></defs><g fill="#ccff00" fill-opacity="1"><g transform="translate(55.101563, 216.32754)"><g><path d="M 12.859375 0 L 0 0 L 0 -53.1875 L 12.859375 -31.71875 Z M 33.765625 -0.046875 L 0.15625 -56.53125 L 12.390625 -56.53125 L 46.046875 0 Z M 33.25 -56.578125 L 46.125 -56.578125 L 46.125 -3.390625 L 33.25 -24.859375 Z M 33.25 -56.578125 "/></g></g></g><g fill="#ccff00" fill-opacity="1"><g transform="translate(105.318589, 216.32754)"><g><path d="M 19.375 -30.0625 L 19.375 -13.453125 C 19.550781 -11.378906 20.757812 -10.257812 23 -10.09375 L 26.3125 -10.015625 L 26.859375 -9.515625 L 26.90625 -0.203125 L 26.4375 0.4375 L 19.328125 0.4375 C 14.648438 0.226562 11.257812 -1.3125 9.15625 -4.1875 C 7.570312 -6 6.703125 -8.957031 6.546875 -13.0625 L 6.546875 -30.0625 Z M 0.203125 -33.21875 L 0.203125 -43 L 6.515625 -43 L 6.515625 -55.75 L 7.265625 -56.578125 L 18.8125 -56.578125 L 19.375 -55.703125 L 19.375 -43 L 26.703125 -43 L 26.703125 -33.21875 Z M 0.203125 -33.21875 "/></g></g></g><g fill="#ccff00" fill-opacity="1"><g transform="translate(135.220008, 216.32754)"><g><path d="M 0.390625 0 L 0 -0.390625 L 0 -56.296875 L 0.390625 -56.6875 L 12.46875 -56.6875 L 12.859375 -56.296875 L 12.859375 -0.390625 L 12.46875 0 Z M 15.546875 -41.140625 L 15.9375 -42.140625 C 17.226562 -42.972656 19.375 -43.390625 22.375 -43.390625 C 27.738281 -43.390625 32.175781 -41.78125 35.6875 -38.5625 C 39.195312 -35.34375 40.988281 -30.773438 41.0625 -24.859375 L 41.0625 -0.546875 L 40.828125 -0.046875 L 28.609375 0 L 28.203125 -0.46875 L 28.203125 -27.03125 C 27.785156 -30.15625 25.707031 -31.847656 21.96875 -32.109375 C 19.789062 -32.109375 17.847656 -31.375 16.140625 -29.90625 L 15.546875 -30.53125 Z M 15.546875 -41.140625 "/></g></g></g><g fill="#ccff00" fill-opacity="1"><g transform="translate(180.427166, 216.32754)"><g/></g></g><g fill="#ccff00" fill-opacity="1"><g transform="translate(204.056387, 216.32754)"><g><path d="M 12.859375 0 L 0 0 L 0 -53.1875 L 12.859375 -31.71875 Z M 52.625 -31.71875 L 65.484375 -53.1875 L 65.484375 0 L 52.625 0 Z M 34.484375 -24.5 L 53.578125 -56.578125 L 65.8125 -56.578125 L 34.484375 -3.9375 Z M 31.484375 -3.90625 L 0.15625 -56.53125 L 12.390625 -56.53125 L 31.484375 -24.453125 Z M 31.484375 -3.90625 "/></g></g></g><g fill="#ccff00" fill-opacity="1"><g transform="translate(274.036752, 216.32754)"><g><path d="M 35.15625 -6.234375 C 31.5 -2.367188 27.15625 -0.25 22.125 0.125 L 21.859375 -0.28125 L 21.859375 -10.09375 L 22.25 -10.578125 C 24.40625 -10.910156 26.285156 -11.960938 27.890625 -13.734375 C 27.992188 -13.859375 28.097656 -13.972656 28.203125 -14.078125 L 35.625 -6.78125 C 35.46875 -6.601562 35.3125 -6.421875 35.15625 -6.234375 Z M 30.015625 -25.921875 C 29.546875 -27.128906 28.835938 -28.242188 27.890625 -29.265625 C 26.265625 -31.003906 24.375 -32.046875 22.21875 -32.390625 L 21.859375 -32.78125 L 21.859375 -42.921875 L 22.40625 -43.359375 C 27.300781 -42.960938 31.679688 -40.859375 35.546875 -37.046875 C 38.566406 -33.835938 40.265625 -30.128906 40.640625 -25.921875 C 40.742188 -22.734375 40.503906 -20.078125 39.921875 -17.953125 L 11.171875 -17.953125 C 11.640625 -16.398438 12.453125 -14.992188 13.609375 -13.734375 C 15.140625 -12.046875 16.925781 -11.019531 18.96875 -10.65625 L 19.328125 -10.0625 L 19.328125 -0.28125 L 18.96875 0.078125 C 14 -0.285156 9.6875 -2.390625 6.03125 -6.234375 C 2.007812 -10.460938 0 -15.59375 0 -21.625 C 0 -27.644531 2.007812 -32.785156 6.03125 -37.046875 C 9.6875 -40.890625 14 -42.992188 18.96875 -43.359375 L 19.328125 -42.96875 L 19.328125 -32.625 L 19.09375 -32.34375 C 17.019531 -32.007812 15.191406 -30.984375 13.609375 -29.265625 C 12.691406 -28.242188 11.984375 -27.128906 11.484375 -25.921875 Z M 30.015625 -25.921875 "/></g></g></g></svg>